<svg width="1281" height="718" viewBox="0 0 1281 718" fill="none" xmlns="http://www.w3.org/2000/svg">
<g clip-path="url(#clip0_704_51)">
<path d="M333.171 249.202C341.858 210.923 379.951 186.931 418.231 195.618C456.511 204.305 480.529 242.399 471.815 280.677C470.227 287.657 467.66 294.169 464.312 300.081L464.264 300.165L464.228 300.253C460.949 308.13 458.286 316.391 456.326 324.984L456.326 324.985C444.165 378.535 462.36 431.888 499.515 467.049L499.599 467.128L499.693 467.194C522.229 483.044 534.352 511.262 528.459 539.777L528.164 541.135C519.545 579.115 481.978 603.03 444.002 594.916L443.104 594.719L441.712 594.388C412.627 587.191 392.094 562.903 388.337 534.729C387.885 531.253 386.57 527.725 383.882 525.118L383.883 525.118C376.159 517.537 367.126 511.731 357.388 507.802L357.386 507.801C349.119 504.479 340.197 510.086 339.671 519.011C338.92 531.189 340.918 543.611 345.831 555.333L345.831 555.334C346.794 557.648 348.392 559.561 350.172 561.103L350.53 561.406C356.049 566.022 363.591 575.687 367.707 582.228L367.708 582.229C388.634 615.453 378.671 659.341 345.448 680.267C312.225 701.193 268.335 691.23 247.409 658.006C243.556 651.883 238.216 641.367 236.425 634.892L236.4 634.801L236.364 634.713L235.749 633.237C232.629 625.868 228.858 618.639 224.46 611.622L224.458 611.618L223.769 610.534C194.391 564.766 141.709 536.21 90.8829 537.612L90.7675 537.615L90.6536 537.635C63.0801 542.443 34.0762 530.638 18.2244 505.478C-2.70098 472.255 7.26271 428.367 40.4856 407.441C73.4496 386.678 116.913 396.323 138.029 428.926L138.524 429.701C141.727 434.806 144.224 440.155 145.998 445.614L145.994 445.773L146.113 446.074C149.577 454.864 153.872 463.45 159.086 471.72C188.706 518.729 242.755 547.773 294.654 545.665L294.757 545.661L294.859 545.644C295.224 545.581 295.596 545.54 296.028 545.494L296.043 545.493L296.058 545.491C300.829 544.89 305.355 542.654 308.402 539.337C311.475 535.992 313.072 531.492 311.739 526.572L311.738 526.571L311.338 525.148C309.268 518.042 306.203 511.098 302.042 504.529C299.234 500.068 296.043 495.938 292.551 492.227L292.097 491.745L292.027 491.743C289.958 489.706 288.093 487.416 286.494 484.876L286.493 484.876C275.48 467.391 280.731 444.313 298.19 433.299C313.477 423.661 333.056 426.469 345.089 439.013L345.091 439.015C346.853 440.845 348.446 442.857 349.844 445.078L349.844 445.079C351.843 448.27 353.321 451.632 354.282 455.083L354.307 455.174L354.343 455.261C356.097 459.527 358.254 463.716 360.787 467.741C365.744 475.618 371.852 482.382 378.774 487.878L378.774 487.877C386.303 493.886 396.822 489.985 399.932 481.183L399.932 481.182C401.828 475.798 403.542 470.264 404.643 465.399C416.963 411.169 398.132 357.118 359.982 321.959L359.923 321.904L359.858 321.856C338.596 305.929 327.26 278.758 332.685 251.216L332.711 251.23L333.171 249.202Z" fill="#CBFF4D" stroke="#CBFF4D" stroke-width="3.1751"/>
<path d="M1018.09 533.824C1033.1 500.893 1072.01 486.366 1104.94 501.409L1104.94 501.409C1137.87 516.425 1152.4 555.327 1137.35 588.257L1137.35 588.258C1122.34 621.189 1083.43 635.717 1050.5 620.674L1050.5 620.673L1049.73 620.316C1017.35 605.049 1003.16 566.498 1018.09 533.825L1018.09 533.824Z" fill="#CBFF4D" stroke="#CBFF4D" stroke-width="3.1751"/>
<path d="M1145.8 254.261C1160.85 221.331 1199.72 206.832 1232.65 221.848L1234.28 222.59C1266.05 238.155 1279.83 276.283 1265.07 308.667C1261.61 316.227 1256.15 323.457 1250.12 329.283C1244.08 335.124 1237.59 339.45 1232.13 341.322L1232.05 341.35L1231.98 341.386C1231.98 341.384 1231.99 341.381 1231.99 341.379C1231.98 341.386 1231.93 341.404 1231.88 341.429C1231.8 341.464 1231.65 341.539 1231.49 341.667C1221.04 349.513 1213.75 354.684 1208.68 360.176C1203.49 365.786 1200.59 371.727 1198.67 381.076C1197.41 387.222 1197.73 393.373 1198.63 399.413C1199.52 405.397 1201.02 411.491 1202.15 417.274L1202.15 417.275C1204.67 430.226 1203.32 444.035 1197.43 456.961C1182.38 489.892 1143.51 504.392 1110.58 489.376L1110.58 489.376C1077.65 474.333 1063.15 435.459 1078.16 402.527L1078.16 402.526C1083.84 390.058 1092.96 380.211 1103.87 373.636L1104.93 373.01C1109.96 370.106 1115.46 367.276 1120.48 364.066C1125.55 360.827 1130.34 357.091 1134.12 352.201L1134.12 352.2C1138.98 345.91 1141.7 340.604 1143.01 334.657C1144.23 329.13 1144.22 323.148 1143.75 315.492L1143.65 313.938C1143.34 309.333 1142.64 304.781 1141.92 300.303C1141.3 296.366 1140.67 292.492 1140.26 288.608L1140.11 286.942C1139.18 276.096 1140.96 264.881 1145.8 254.262L1145.8 254.261Z" fill="#CBFF4D" stroke="#CBFF4D" stroke-width="3.1751"/>
<path d="M1138.8 588.917C1123.42 622.646 1083.57 637.525 1049.84 622.117C1016.11 606.738 1001.24 566.894 1016.64 533.165C1032.02 499.436 1071.87 484.557 1105.6 499.965C1139.32 515.344 1154.2 555.188 1138.8 588.917Z" fill="#CBFF4D" stroke="#CBFF4D" stroke-width="2.03206"/>
<path d="M1233.31 220.404C1199.58 205.024 1159.76 219.875 1144.36 253.604C1139.4 264.476 1137.58 275.966 1138.52 287.078C1139.3 296.103 1141.46 304.996 1142.06 314.045C1143.2 330.846 1142.39 338.902 1132.87 351.23C1125.61 360.606 1114.39 365.714 1104.13 371.635C1092.48 378.363 1082.72 388.687 1076.72 401.868C1061.34 435.597 1076.19 475.412 1109.92 490.82C1143.65 506.2 1183.46 491.348 1198.87 457.62C1204.9 444.384 1206.29 430.237 1203.71 416.972C1201.4 405.177 1197.81 393.179 1200.23 381.396C1203.97 363.147 1211.38 358.755 1232.45 342.931C1232.51 342.877 1232.59 342.851 1232.65 342.824C1244.15 338.878 1259.4 324.871 1266.51 309.328C1281.89 275.598 1267.04 235.783 1233.31 220.375L1233.31 220.404Z" fill="#CBFF4D" stroke="#CBFF4D" stroke-width="2.03206"/>
<path d="M480.724 36.5441C438.474 56.228 420.185 106.427 439.869 148.677C447.621 165.287 460.084 178.222 474.92 186.547C475.391 186.813 475.835 187.05 476.307 187.316C516.243 209.584 544.2 250.757 548.059 298.725C548.36 302.279 548.123 305.931 548.535 309.543C549.168 315.413 550.841 320.297 553.265 325.483C557.661 334.885 563.838 340.732 572.286 348.017C603.52 380.131 618.542 426.31 609.702 472.452C605.895 489.884 607.54 508.64 615.665 526.048C635.349 568.297 685.548 586.587 727.798 566.903C770.048 547.219 788.337 497.02 768.653 454.77C760.661 437.647 747.67 424.445 732.243 416.132C713.274 405.531 697.532 391.018 685.623 374.102C675.044 359.078 683.391 339.178 701.004 333.929C728.232 325.809 757.078 321.447 786.962 321.473C820.899 321.494 853.867 327.314 884.85 337.978C902.251 343.98 909.703 369.868 898.513 384.459C887.061 399.382 872.485 412.196 855.263 421.817C839.821 430.134 826.811 443.299 818.819 460.423C799.107 502.65 817.371 552.882 859.597 572.594C901.824 592.306 952.056 574.042 971.768 531.815C979.88 514.413 981.555 495.66 977.765 478.225C968.961 432.069 984.169 380.269 1015.4 348.195C1024.66 339.575 1030.05 335.073 1034.43 325.677C1036.84 320.506 1038.23 316.097 1039.18 309.734C1039.7 306.118 1039.37 302.479 1039.66 298.913C1043.57 250.952 1071.58 209.788 1111.51 187.567C1111.97 187.298 1112.42 187.056 1112.91 186.816C1127.76 178.483 1140.23 165.585 1147.98 148.962C1167.69 106.735 1149.43 56.5028 1107.2 36.7911C1064.98 17.0793 1014.74 35.3432 995.032 77.5695C986.981 94.8046 985.255 113.332 988.909 130.621C996.399 167.879 987.806 204.601 967.973 234.358C918.229 282.182 859.749 288.748 795.619 288.721C738.72 288.687 681.286 283.32 636.617 248.461C623.05 237.889 612.331 223.903 605.969 207.921C596.441 183.976 593.511 157.363 598.945 130.491C602.608 113.225 600.901 94.664 592.856 77.4556C573.172 35.2058 522.972 16.9164 480.723 36.6003L480.724 36.5441Z" fill="#CBFF4D" stroke="#CBFF4D" stroke-width="2.50833"/>
</g>
<defs>
<clipPath id="clip0_704_51">
<rect width="1262.47" height="685.005" fill="white" transform="translate(18.0176) rotate(1.50722)"/>
</clipPath>
</defs>
</svg>
